<svg xmlns="http://www.w3.org/2000/svg" width="20" height="20.000" viewBox="0 0 20 20.000" fill="none">
  <path d="M 15.18 2.41 C 15.18 1.08 16.26 0 17.59 0 C 18.92 0 20 1.08 20 2.41 C 20 3.74 18.92 4.82 17.59 4.82 C 16.26 4.82 15.18 3.74 15.18 2.41 Z M 11.33 12.759 L 14.22 9.03 L 14.18 9.05 C 14.34 8.83 14.37 8.55 14.26 8.3 C 14.151 8.05 13.91 7.88 13.651 7.86 C 13.38 7.83 13.111 7.95 12.95 8.17 L 10.531 11.3 L 7.76 9.12 C 7.59 8.99 7.39 8.939 7.19 8.96 C 6.991 8.99 6.811 9.099 6.69 9.259 L 3.731 13.11 L 3.67 13.2 C 3.5 13.519 3.58 13.929 3.88 14.15 C 4.02 14.24 4.17 14.3 4.34 14.3 C 4.571 14.31 4.79 14.189 4.93 14 L 7.44 10.769 L 10.29 12.91 L 10.38 12.969 C 10.7 13.139 11.1 13.06 11.33 12.759 Z M 13.45 1.78 C 13.41 2.03 13.39 2.28 13.39 2.53 C 13.39 4.78 15.21 6.599 17.45 6.599 C 17.7 6.599 17.94 6.57 18.19 6.53 L 18.19 14.599 C 18.19 17.99 16.19 20 12.79 20 L 5.401 20 C 2 20 0 17.99 0 14.599 L 0 7.2 C 0 3.8 2 1.78 5.401 1.78 L 13.45 1.78 Z" fill="currentColor" fill-rule="evenodd"></path>
</svg>