<svg xmlns="http://www.w3.org/2000/svg" width="18" height="20" viewBox="0 0 18 20" fill="none">
  <path d="M 13.411 0.769 L 13.412 1.518 C 16.167 1.734 17.986 3.611 17.989 6.49 L 18 14.916 C 18.004 18.054 16.032 19.985 12.872 19.99 L 5.152 20 C 2.011 20.004 0.015 18.027 0.011 14.88 L 0 6.553 C -0.004 3.655 1.752 1.783 4.506 1.53 L 4.505 0.781 C 4.504 0.341 4.83 0.01 5.264 0.01 C 5.699 0.009 6.025 0.339 6.026 0.779 L 6.027 1.478 L 11.891 1.47 L 11.89 0.771 C 11.889 0.331 12.215 0.001 12.65 0 C 13.074 -0.001 13.41 0.329 13.411 0.769 Z M 1.521 6.862 L 16.47 6.842 L 16.47 6.492 C 16.427 4.343 15.349 3.215 13.414 3.047 L 13.415 3.817 C 13.415 4.247 13.08 4.588 12.656 4.588 C 12.221 4.589 11.894 4.249 11.894 3.819 L 11.893 3.009 L 6.029 3.017 L 6.03 3.826 C 6.03 4.257 5.705 4.597 5.27 4.597 C 4.836 4.598 4.509 4.259 4.509 3.828 L 4.508 3.058 C 2.583 3.251 1.518 4.383 1.52 6.551 L 1.521 6.862 Z M 12.24 11.404 L 12.24 11.415 C 12.25 11.875 12.625 12.224 13.08 12.214 C 13.524 12.203 13.879 11.822 13.869 11.362 C 13.848 10.923 13.492 10.564 13.049 10.565 C 12.594 10.575 12.239 10.945 12.24 11.404 Z M 13.055 15.892 C 12.601 15.882 12.235 15.503 12.234 15.043 C 12.224 14.584 12.588 14.203 13.043 14.192 L 13.052 14.192 C 13.517 14.192 13.893 14.571 13.893 15.04 C 13.894 15.51 13.519 15.891 13.055 15.892 Z M 8.172 11.42 C 8.192 11.88 8.568 12.239 9.022 12.219 C 9.467 12.198 9.821 11.818 9.801 11.358 C 9.79 10.909 9.425 10.559 8.981 10.56 C 8.527 10.58 8.171 10.961 8.172 11.42 Z M 9.026 15.847 C 8.572 15.867 8.197 15.508 8.176 15.048 C 8.176 14.589 8.531 14.209 8.985 14.188 C 9.429 14.187 9.795 14.537 9.805 14.985 C 9.826 15.446 9.47 15.826 9.026 15.847 Z M 4.104 11.455 C 4.124 11.915 4.5 12.275 4.954 12.254 C 5.399 12.234 5.753 11.853 5.732 11.393 C 5.723 10.944 5.357 10.594 4.912 10.595 C 4.458 10.615 4.103 10.995 4.104 11.455 Z M 4.958 15.852 C 4.504 15.873 4.129 15.513 4.108 15.053 C 4.107 14.594 4.463 14.213 4.917 14.193 C 5.361 14.192 5.727 14.542 5.737 14.991 C 5.758 15.451 5.404 15.832 4.958 15.852 Z" fill="currentColor" fill-rule="evenodd"></path>
</svg>