<svg xmlns="http://www.w3.org/2000/svg" width="20" height="20.000" viewBox="0 0 20 20.000" fill="none">
  <path d="M 2.54 0 L 5.92 0 C 7.33 0 8.46 1.15 8.46 2.561 L 8.46 5.97 C 8.46 7.39 7.33 8.53 5.92 8.53 L 2.54 8.53 C 1.14 8.53 0 7.39 0 5.97 L 0 2.561 C 0 1.15 1.14 0 2.54 0 Z M 2.54 11.47 L 5.92 11.47 C 7.33 11.47 8.46 12.611 8.46 14.031 L 8.46 17.44 C 8.46 18.85 7.33 20 5.92 20 L 2.54 20 C 1.14 20 0 18.85 0 17.44 L 0 14.031 C 0 12.611 1.14 11.47 2.54 11.47 Z M 17.46 0 L 14.08 0 C 12.67 0 11.54 1.15 11.54 2.561 L 11.54 5.97 C 11.54 7.39 12.67 8.53 14.08 8.53 L 17.46 8.53 C 18.86 8.53 20 7.39 20 5.97 L 20 2.561 C 20 1.15 18.86 0 17.46 0 Z M 14.08 11.47 L 17.46 11.47 C 18.86 11.47 20 12.611 20 14.031 L 20 17.44 C 20 18.85 18.86 20 17.46 20 L 14.08 20 C 12.67 20 11.54 18.85 11.54 17.44 L 11.54 14.031 C 11.54 12.611 12.67 11.47 14.08 11.47 Z" fill="currentColor" fill-rule="evenodd"></path>
</svg>