<svg xmlns="http://www.w3.org/2000/svg" width="17.317" height="16.667" viewBox="0 0 17.317 16.667" fill="none">
  <path d="M 6.579 7.692 C 6.215 7.692 5.927 7.975 5.927 8.333 C 5.927 8.683 6.215 8.975 6.579 8.975 L 11.667 8.975 L 11.667 12.958 C 11.667 15 9.979 16.667 7.894 16.667 L 3.765 16.667 C 1.687 16.667 0 15.008 0 12.967 L 0 3.708 C 0 1.658 1.696 0 3.773 0 L 7.911 0 C 9.979 0 11.667 1.658 11.667 3.7 L 11.667 7.692 L 6.579 7.692 Z M 14.692 5.45 L 17.125 7.875 C 17.25 8 17.317 8.159 17.317 8.334 C 17.317 8.5 17.25 8.667 17.125 8.784 L 14.692 11.209 C 14.567 11.334 14.4 11.4 14.242 11.4 C 14.075 11.4 13.909 11.334 13.784 11.209 C 13.534 10.959 13.534 10.55 13.784 10.3 L 15.117 8.975 L 11.667 8.975 L 11.667 7.692 L 15.117 7.692 L 13.784 6.367 C 13.534 6.117 13.534 5.709 13.784 5.459 C 14.034 5.2 14.442 5.2 14.692 5.45 Z" fill="currentColor" fill-rule="evenodd"></path>
</svg>