<svg xmlns="http://www.w3.org/2000/svg" width="17" height="20" viewBox="0 0 17 20" fill="none">
  <path d="M 15.207 6.796 C 15.207 8.052 15.539 8.793 16.27 9.646 C 16.823 10.274 17 11.081 17 11.956 C 17 12.83 16.713 13.66 16.137 14.334 C 15.384 15.142 14.322 15.657 13.237 15.747 C 11.666 15.881 10.094 15.994 8.5 15.994 C 6.906 15.994 5.335 15.926 3.764 15.747 C 2.678 15.657 1.616 15.142 0.864 14.334 C 0.288 13.66 0 12.83 0 11.956 C 0 11.081 0.178 10.274 0.73 9.646 C 1.484 8.793 1.794 8.052 1.794 6.796 L 1.794 6.37 C 1.794 4.688 2.213 3.589 3.077 2.512 C 4.361 0.942 6.419 0 8.456 0 L 8.545 0 C 10.625 0 12.75 0.987 14.012 2.625 C 14.831 3.679 15.207 4.733 15.207 6.37 L 15.207 6.796 Z M 5.574 18.061 C 5.574 17.557 6.036 17.327 6.463 17.228 C 6.963 17.122 10.009 17.122 10.509 17.228 C 10.937 17.327 11.399 17.557 11.399 18.061 C 11.374 18.54 11.093 18.965 10.704 19.235 C 10.2 19.628 9.609 19.877 8.991 19.966 C 8.649 20.011 8.313 20.012 7.983 19.966 C 7.364 19.877 6.772 19.628 6.269 19.234 C 5.88 18.965 5.599 18.54 5.574 18.061 Z" fill="currentColor" fill-rule="evenodd"></path>
</svg>