<svg xmlns="http://www.w3.org/2000/svg" width="19" height="20" viewBox="0 0 19 20" fill="none">
  <path d="M 17.902 11.58 C 18.26 11.77 18.536 12.07 18.73 12.37 C 19.108 12.99 19.078 13.75 18.71 14.42 L 17.994 15.62 C 17.616 16.26 16.911 16.66 16.185 16.66 C 15.828 16.66 15.429 16.56 15.102 16.36 C 14.836 16.19 14.53 16.13 14.203 16.13 C 13.191 16.13 12.343 16.96 12.312 17.95 C 12.312 19.1 11.372 20 10.197 20 L 8.807 20 C 7.621 20 6.681 19.1 6.681 17.95 C 6.661 16.96 5.813 16.13 4.801 16.13 C 4.464 16.13 4.157 16.19 3.902 16.36 C 3.575 16.56 3.166 16.66 2.818 16.66 C 2.082 16.66 1.377 16.26 0.999 15.62 L 0.294 14.42 C -0.084 13.77 -0.105 12.99 0.274 12.37 C 0.437 12.07 0.744 11.77 1.091 11.58 C 1.377 11.44 1.561 11.21 1.735 10.94 C 2.246 10.08 1.939 8.95 1.071 8.44 C 0.059 7.87 -0.268 6.6 0.314 5.61 L 0.999 4.43 C 1.592 3.44 2.859 3.09 3.881 3.67 C 4.77 4.15 5.925 3.83 6.446 2.98 C 6.61 2.7 6.702 2.4 6.681 2.1 C 6.661 1.71 6.773 1.34 6.967 1.04 C 7.346 0.42 8.03 0.02 8.776 0 L 10.217 0 C 10.973 0 11.658 0.42 12.036 1.04 C 12.22 1.34 12.343 1.71 12.312 2.1 C 12.292 2.4 12.384 2.7 12.547 2.98 C 13.068 3.83 14.223 4.15 15.123 3.67 C 16.134 3.09 17.412 3.44 17.994 4.43 L 18.679 5.61 C 19.272 6.6 18.945 7.87 17.923 8.44 C 17.054 8.95 16.748 10.08 17.269 10.94 C 17.432 11.21 17.616 11.44 17.902 11.58 Z M 6.61 10.01 C 6.61 11.58 7.908 12.83 9.512 12.83 C 11.117 12.83 12.384 11.58 12.384 10.01 C 12.384 8.44 11.117 7.18 9.512 7.18 C 7.908 7.18 6.61 8.44 6.61 10.01 Z" fill="currentColor" fill-rule="evenodd"></path>
</svg>